<svg xmlns="http://www.w3.org/2000/svg" xmlns:xlink="http://www.w3.org/1999/xlink" preserveAspectRatio="xMidYMid" width="16" height="16" viewBox="0 0 16 16">
  <defs>
    <style>
      .cls-1 {
        fill: #7e7f84;
        fill-rule: evenodd;
      }
    </style>
  </defs>
  <path d="M8.000,16.000 C3.582,16.000 -0.000,12.418 -0.000,8.000 C-0.000,3.582 3.582,-0.000 8.000,-0.000 C12.418,-0.000 16.000,3.582 16.000,8.000 C16.000,12.418 12.418,16.000 8.000,16.000 ZM8.000,1.000 C4.140,1.000 1.000,4.140 1.000,8.000 C1.000,11.860 4.140,15.015 8.000,15.015 C11.860,15.015 15.000,11.860 15.000,8.000 C15.000,4.140 11.860,1.000 8.000,1.000 ZM11.500,8.500 L8.500,8.500 L8.500,11.500 C8.500,11.776 8.276,12.000 8.000,12.000 C7.724,12.000 7.500,11.776 7.500,11.500 L7.500,8.500 L4.500,8.500 C4.224,8.500 4.000,8.276 4.000,8.000 C4.000,7.724 4.224,7.500 4.500,7.500 L7.500,7.500 L7.500,4.500 C7.500,4.224 7.724,4.000 8.000,4.000 C8.276,4.000 8.500,4.224 8.500,4.500 L8.500,7.500 L11.500,7.500 C11.776,7.500 12.000,7.724 12.000,8.000 C12.000,8.276 11.776,8.500 11.500,8.500 Z" class="cls-1"/>
</svg>
